<?xml version="1.0" encoding="utf-8"?>
<!-- Generator: Adobe Illustrator 19.2.1, SVG Export Plug-In . SVG Version: 6.00 Build 0)  -->
<svg version="1.1" id="Layer_1" xmlns="http://www.w3.org/2000/svg" xmlns:xlink="http://www.w3.org/1999/xlink" x="0px" y="0px"
	 viewBox="0 0 50 45" style="enable-background:new 0 0 50 45;" xml:space="preserve">
<style type="text/css">
	.st0{fill:none;}
	.st1{fill:#6FB344;}
</style>
<rect x="0.5" class="st0" width="50" height="45"/>
<path d="M44.1,43.1H6.8c-1.1,0-2-0.9-2-2V3.9c0-1.1,0.9-2,2-2h37.2c1.1,0,2,0.9,2,2v37.2C46.1,42.2,45.2,43.1,44.1,43.1z"/>
<g>
	<path class="st1" d="M43,38.7c-3.4,0-6.7,0-10,0c-0.3,0-0.5-0.2-0.7-0.5c-0.5-0.7-0.7-1.5-1-2.4c-0.4-1.5-0.8-3.1-0.9-4.6
		c-3.3,1.2-6.7,1.2-10,0c-0.2,2-0.6,3.9-1.3,5.8c-0.2,0.4-0.4,0.9-0.6,1.2c-0.2,0.2-0.3,0.4-0.6,0.4c-3.3,0-6.6,0-10,0
		c1.4-3.9,2.1-7.9,2.4-12.1c0.6,0.4,1.2,0.6,1.8,0.8c1.4,0.2,2.6-0.1,3.6-1c0.2-0.2,0.3-0.2,0.5,0c1.7,1.4,4,1.4,5.7,0
		c0.2-0.2,0.3-0.2,0.5,0c1.7,1.5,4,1.5,5.8,0c0.2-0.2,0.3-0.2,0.5,0c1.7,1.5,4,1.5,5.8,0c0.1-0.1,0.2-0.2,0.4-0.1
		c1.4,1.4,3.7,1.6,5.4,0.4c0,0,0.1,0,0.1,0c0.1,2.1,0.4,4.1,0.8,6.1C41.8,34.8,42.3,36.8,43,38.7z"/>
	<path class="st1" d="M25.5,10c0.5,0.9,1,1.8,1.5,2.6c2.3,3.3,5.3,5.8,8.8,7.9c1.6,1,3.3,1.8,5,2.5c0.3,0.1,0.4,0.3,0.3,0.6
		c-0.3,1.6-1.5,2.7-3,2.7c-1.6,0-2.9-1-3.2-2.5c0,0,0,0-0.1-0.1c-0.5,1.8-1.6,2.8-3.5,2.6c-1.4-0.1-2.3-1.1-2.7-2.6
		c-0.5,1.8-1.6,2.8-3.5,2.6c-1.5-0.1-2.4-1.1-2.8-2.7c-0.5,1.8-1.6,2.8-3.5,2.7c-1.4-0.1-2.3-1-2.8-2.6c-0.1,0-0.1,0.1-0.1,0.2
		c-0.4,1.5-1.7,2.5-3.3,2.4c-1.5-0.1-2.7-1.3-2.9-2.8c0-0.3,0.1-0.4,0.3-0.5c2.7-1.2,5.3-2.5,7.7-4.3c3.1-2.3,5.8-5.1,7.6-8.5
		C25.4,10.1,25.4,10,25.5,10z"/>
	<path class="st1" d="M30.4,6.7c-0.3-0.1-0.6-0.1-0.9-0.2c-0.6-0.1-1.2,0-1.7,0.4c-0.5,0.3-1,0.7-1.6,1c-0.5,0.3-1,0.3-1.4-0.1
		c-0.7-0.5-1.3-0.5-2,0c-0.2,0.2-0.5,0.3-0.7,0.5c-0.2,0.2-0.5,0.3-0.7,0.4c-0.7,0.2-0.8,0.1-0.8-0.6c0-0.7,0-1.5,0-2.2
		c0-0.2,0-0.3,0.3-0.3c0.3,0,0.7-0.2,1-0.3c1-0.4,1.8-0.4,2.6,0.4c0.7,0.7,1.5,0.7,2.4,0.3c1.2-0.6,2.3-0.3,3.4,0.4
		C30.2,6.4,30.4,6.5,30.4,6.7z"/>
</g>
</svg>
