<?xml version="1.0" encoding="utf-8"?>
<!-- Generator: Adobe Illustrator 19.2.1, SVG Export Plug-In . SVG Version: 6.00 Build 0)  -->
<svg version="1.1" id="Layer_1" xmlns="http://www.w3.org/2000/svg" xmlns:xlink="http://www.w3.org/1999/xlink" x="0px" y="0px"
	 viewBox="0 0 50 45" style="enable-background:new 0 0 50 45;" xml:space="preserve">
<style type="text/css">
	.st0{fill:none;}
	.st1{fill:#6FB344;}
</style>
<rect x="0.5" class="st0" width="50" height="45"/>
<path d="M44.1,43.1H6.8c-1.1,0-2-0.9-2-2V3.9c0-1.1,0.9-2,2-2h37.2c1.1,0,2,0.9,2,2v37.2C46.1,42.2,45.2,43.1,44.1,43.1z"/>
<path class="st1" d="M13.2,36.6c0.3-0.6,0.2-0.8-0.5-0.9c-0.2,0-0.3-0.2-0.2-0.4c0.2-0.6,0.1-0.7-0.5-0.8c-0.2,0-0.3-0.1-0.2-0.4
	c0.2-0.5,0.1-0.8-0.5-0.8c-0.3,0-0.3-0.1-0.2-0.4c0.2-0.5,0.1-0.7-0.5-0.8c-0.2,0-0.3-0.1-0.2-0.4c0.2-0.5,0.1-0.7-0.5-0.8
	c-0.3,0-0.4-0.1-0.2-0.4c0.2-0.4,0-0.7-0.5-0.7c-0.3,0-0.4-0.1-0.3-0.4c0.2-0.4,0-0.7-0.5-0.7c-0.3,0-0.4-0.1-0.2-0.4
	c0.2-0.4,0-0.7-0.4-0.7c-0.3,0-0.4-0.1-0.3-0.4c0.2-0.4,0-0.7-0.5-0.7c-0.1,0-0.2,0.1-0.2-0.1c0-0.1,0.1-0.2,0.2-0.2
	c0.8-0.6,1.2-1.5,1.2-2.5c0-0.5-0.1-1-0.4-1.4c-0.1-0.2-0.1-0.3,0.1-0.4c0.1,0,0.1-0.1,0.2-0.1c8.2-5.3,16.4-10.6,24.6-15.8
	C33.1,6,33.3,6,33.5,6.3c0.9,1.1,2.6,1.4,3.8,0.7C37.4,7,37.5,6.9,37.6,7c0.1,0.1,0,0.2-0.1,0.3c-0.2,0.3,0.1,0.7,0.5,0.7
	c0.4,0,0.4,0.1,0.3,0.4C38.1,8.7,38.3,9,38.7,9c0.3,0,0.4,0.1,0.3,0.4c-0.2,0.4,0,0.7,0.4,0.7c0.3,0,0.4,0.1,0.3,0.4
	c-0.2,0.4,0,0.7,0.5,0.7c0.3,0,0.3,0.1,0.2,0.4c-0.2,0.5-0.1,0.7,0.5,0.7c0.2,0,0.3,0.1,0.2,0.3c-0.2,0.5-0.1,0.7,0.5,0.8
	c0.2,0,0.3,0.1,0.2,0.4c-0.2,0.5-0.1,0.7,0.5,0.8c0.2,0,0.3,0.2,0.2,0.4c-0.2,0.5-0.1,0.8,0.5,0.7c0.2,0,0.3,0.1,0.3,0.3
	c-0.2,0.7-0.1,0.8,0.6,0.8c-0.3,0.3-0.6,0.5-0.8,0.8c-0.7,1-0.9,2.2-0.3,3.3c0.1,0.3,0.1,0.4-0.2,0.5c-4.3,2.7-8.5,5.5-12.8,8.2
	c-4,2.5-7.9,5.1-11.9,7.6c-0.4,0.3-0.4,0.3-0.7-0.1c-0.9-1-2.6-1.4-3.8-0.7C13.4,36.6,13.4,36.7,13.2,36.6z"/>
<path d="M28.9,27.2c-3.5,2.3-7.1,4.6-10.6,6.9c-0.6,0.4-1.4,0.3-1.8-0.4c-1.9-2.9-3.7-5.8-5.6-8.8c-0.4-0.7-0.3-1.3,0.4-1.7
	c7.1-4.6,14.3-9.2,21.4-13.8c0.7-0.4,1.3-0.3,1.7,0.4c1.9,2.9,3.7,5.8,5.6,8.7c0.4,0.6,0.3,1.3-0.4,1.8C36,22.7,32.5,25,28.9,27.2z"
	/>
<path class="st1" d="M22.5,17.2c2.6-1.7,5.2-3.3,7.8-5c0.3-0.2,0.4-0.2,0.5,0.1c1.8,2.9,3.7,5.7,5.5,8.5c0.2,0.2,0.2,0.4-0.1,0.5
	c-5.2,3.3-10.4,6.7-15.6,10c-0.2,0.2-0.3,0.1-0.5-0.1c-1.8-2.9-3.7-5.7-5.5-8.6c-0.2-0.2-0.1-0.3,0.1-0.5
	C17.3,20.5,19.9,18.9,22.5,17.2z"/>
<path class="st1" d="M16.5,27.6c0.9,1.4,1.8,2.8,2.7,4.3c0.2,0.2,0.2,0.4-0.1,0.5c-0.4,0.3-0.9,0.5-1.3,0.8
	c-0.3,0.2-0.4,0.1-0.5-0.1c-1-1.6-2.1-3.3-3.1-4.9c-0.8-1.2-1.6-2.4-2.4-3.7c-0.2-0.2-0.1-0.4,0.1-0.5c0.4-0.3,0.9-0.5,1.3-0.8
	c0.2-0.2,0.3-0.1,0.5,0.1C14.6,24.7,15.5,26.1,16.5,27.6z"/>
<path class="st1" d="M34.4,16c-0.9-1.4-1.8-2.8-2.7-4.3c-0.2-0.3-0.1-0.4,0.1-0.5c0.4-0.3,0.9-0.5,1.3-0.8c0.2-0.1,0.3-0.1,0.4,0.1
	c1.9,2.9,3.7,5.8,5.6,8.7c0.1,0.2,0.1,0.3-0.1,0.4c-0.5,0.3-0.9,0.6-1.4,0.9c-0.2,0.2-0.3,0.1-0.5-0.1C36.2,18.9,35.3,17.5,34.4,16z
	"/>
<path d="M25.8,23.8c0.4,0.7,0.9,1.4,1.3,2c0.1,0.2,0.3,0.3,0,0.5c-0.3,0.2-0.4,0-0.5-0.2c-0.6-0.9-1.2-1.8-1.7-2.7
	c-0.1-0.1-0.2-0.2-0.1-0.4c0.2-0.1,0.3-0.4,0.6-0.2c0.8,0.5,1.5,1,2.3,1.5c0.1,0,0.1,0.1,0.2,0.1c0.1-0.1,0-0.2-0.1-0.2
	c-0.4-0.7-0.8-1.3-1.3-2c-0.1-0.2-0.2-0.3,0-0.5c0.2-0.1,0.3,0,0.4,0.2c0.6,0.9,1.2,1.8,1.7,2.7c0.1,0.1,0.2,0.3,0,0.4
	c-0.2,0.1-0.3,0.4-0.6,0.2c-0.5-0.4-1.1-0.7-1.6-1.1C26.4,24.1,26.1,23.9,25.8,23.8C25.8,23.7,25.8,23.8,25.8,23.8z"/>
<path d="M24.1,18.4c0,0.3-0.1,0.6,0,0.9c0.1,0.1,0.1,0.3-0.1,0.4c-0.1,0.1-0.3,0-0.4-0.1c-0.2-0.2-0.5-0.2-0.7-0.4
	c-0.1,0.2,0,0.2,0.1,0.3c0.4,0.7,0.9,1.4,1.3,2.1c0.1,0.2,0.2,0.4,0,0.5c-0.2,0.1-0.3-0.1-0.4-0.2c-0.6-0.9-1.2-1.8-1.7-2.7
	c-0.1-0.1-0.3-0.2-0.1-0.4c0.2-0.1,0.3-0.4,0.6-0.2c0.2,0.1,0.4,0.2,0.6,0.3c0.2,0.1,0.3,0,0.3-0.2c0-0.2,0-0.4,0-0.6
	c0-0.1,0-0.2,0.1-0.3c0.3-0.3,0.4-0.3,0.7,0.1c0.5,0.8,1.1,1.6,1.6,2.5c0,0.1,0.1,0.1,0.1,0.2c0.1,0.2,0.2,0.3,0,0.5
	c-0.2,0.1-0.3,0-0.4-0.2c-0.4-0.7-0.9-1.4-1.3-2.1C24.3,18.6,24.2,18.5,24.1,18.4z"/>
<path d="M21.7,23.7c-0.2,0.1-0.3,0.2-0.5,0.3c-0.1,0.1-0.2,0.1-0.3,0c-0.1-0.1-0.1-0.3,0-0.3c0.2-0.1,0.2-0.3,0.1-0.5
	c-0.4-0.6-0.8-1.3-1.3-1.9c-0.1-0.2-0.2-0.3-0.4-0.2c-0.1,0.1-0.2,0-0.3-0.1c-0.1-0.1,0-0.2,0.1-0.3c0.3-0.2,0.6-0.4,1-0.6
	c0.1-0.1,0.3,0,0.5,0c0.1,0,0.1,0,0.2,0.1c1.6,0.9,1.5,0.7,1.7,2.4C22.4,23.2,22.1,23.5,21.7,23.7z"/>
<path d="M29,22.8c-0.3-0.5-0.6-0.9-0.9-1.4c-0.1-0.2-0.1-0.3,0.1-0.4c0.5-0.3,1.1-0.7,1.6-1c0.1-0.1,0.3-0.2,0.4,0
	c0.1,0.2,0,0.3-0.2,0.4c-0.4,0.3-0.8,0.5-1.2,0.8c-0.2,0.1-0.2,0.2-0.1,0.4c0,0.1,0.1,0.1,0.1,0.2c0.4,0.6,0.4,0.6,1,0.3
	c0.1-0.1,0.3-0.1,0.4,0c0.1,0.2,0,0.3-0.1,0.4c-0.6,0.4-0.6,0.4-0.2,1c0.3,0.4,0.3,0.4,0.7,0.1c0.3-0.2,0.7-0.4,1-0.7
	c0.1-0.1,0.3-0.2,0.4,0c0.1,0.2,0,0.3-0.2,0.4c-0.5,0.4-1.1,0.7-1.6,1.1c-0.2,0.1-0.3,0.1-0.4-0.1C29.6,23.7,29.3,23.3,29,22.8z"/>
<path d="M22.8,27c-0.4-0.6-0.3-1.2-0.4-1.7c-0.1-0.3,0-0.6,0.3-0.8c0.3-0.2,0.6-0.1,0.9,0.1c1.5,0.9,1.4,0.7,1.6,2.4
	c0,0.3,0,0.6-0.3,0.8c-0.3,0.2-0.6,0.1-0.9-0.1C23.5,27.5,23,27.3,22.8,27z"/>
<path d="M17.7,26c-0.2-0.7-0.4-1.4-0.6-2.1c-0.1-0.4-0.3-0.9-0.4-1.3c0-0.1-0.1-0.3,0.1-0.4c0.1-0.1,0.3,0,0.4,0.1
	c0.9,0.8,1.8,1.5,2.6,2.3c0.1,0.1,0.1,0.2,0.1,0.3C19.8,25,19.7,25,19.5,25c0,0-0.1,0-0.1-0.1c-0.2-0.1-0.3-0.4-0.5-0.3
	c-0.3,0.1-0.5,0.3-0.8,0.5c-0.1,0.1,0,0.2,0,0.3c0,0.2,0.1,0.3,0.1,0.5c0,0.1-0.1,0.3-0.2,0.3C17.8,26.1,17.7,26.1,17.7,26z"/>
<path d="M27,17.9c-0.2-0.3-0.4-0.7-0.6-1c-0.1-0.2-0.2-0.2-0.4-0.1c-0.1,0.1-0.3,0.2-0.4,0.3c-0.1,0.1-0.2,0.1-0.3-0.1
	c-0.1-0.1-0.1-0.3,0-0.3c0.6-0.4,1.2-0.8,1.8-1.1c0.1-0.1,0.2,0,0.3,0.1c0.1,0.1,0.1,0.2-0.1,0.3c-0.2,0.1-0.3,0.2-0.5,0.3
	c-0.2,0.1-0.2,0.2-0.1,0.3c0.5,0.7,0.9,1.4,1.4,2.1c0.1,0.2,0.2,0.2,0.3,0.1c0.1-0.1,0.3-0.2,0.4-0.3c0.1-0.1,0.2-0.1,0.3,0.1
	c0.1,0.1,0,0.2-0.1,0.3c-0.6,0.4-1.1,0.7-1.7,1.1c-0.1,0.1-0.3,0.1-0.3-0.1c-0.1-0.1-0.1-0.3,0.1-0.4c0,0,0,0,0.1,0
	c0.5-0.4,0.5-0.4,0.2-1C27.3,18.3,27.2,18.1,27,17.9z"/>
<path d="M30.3,16.1c-0.3-0.4-0.5-0.8-0.8-1.2c-0.1-0.1-0.1-0.2-0.3-0.1c-0.1,0.1-0.3,0.1-0.2,0.3c0.1,0.2,0,0.3-0.1,0.4
	c-0.2,0.1-0.3,0-0.3-0.2c0,0,0,0,0-0.1c-0.3-0.5-0.3-0.4,0.2-0.7c0.5-0.3,0.9-0.6,1.4-0.9c0.2-0.2,0.4-0.1,0.5,0.1
	c0.1,0.1,0.1,0.2,0.2,0.3c0.1,0.1,0,0.2-0.1,0.3c-0.1,0.1-0.2,0.1-0.3,0c-0.1-0.2-0.3-0.1-0.4,0c-0.2,0.1-0.1,0.3,0,0.4
	c0.5,0.7,0.9,1.5,1.4,2.2c0.1,0.1,0.1,0.2,0.2,0.3c0.1,0.1,0.1,0.3-0.1,0.4c-0.2,0.1-0.3,0-0.3-0.1C30.9,16.9,30.6,16.5,30.3,16.1
	C30.3,16.1,30.3,16.1,30.3,16.1z"/>
<path class="st1" d="M20.8,22c-0.2-0.4-0.5-0.7-0.7-1.1c-0.1-0.1-0.1-0.2,0-0.3c0.1-0.1,0.2-0.1,0.3,0c0.4,0.2,0.9,0.5,1.2,0.8
	c0.1,0.1,0.1,0.2,0.1,0.3c0,0.4,0.1,0.7,0.1,1.1c0,0.2,0,0.3-0.2,0.4c-0.2,0.1-0.2-0.1-0.3-0.2C21.2,22.6,21,22.3,20.8,22z"/>
<path class="st1" d="M24.4,25.7c0.1,0.3,0.1,0.6,0.2,0.9c0,0.2,0,0.4,0.1,0.6c0,0.3-0.1,0.3-0.3,0.2c-0.3-0.2-0.6-0.4-0.9-0.5
	c-0.2-0.1-0.3-0.3-0.3-0.5c-0.1-0.4-0.1-0.8-0.1-1.2c0-0.1,0-0.3,0.2-0.2C23.6,25.1,24,25.4,24.4,25.7z"/>
<path class="st1" d="M17.5,23.2c0.3,0.3,0.6,0.6,0.9,0.8c0.1,0.1,0.1,0.1,0,0.2c0,0,0,0-0.1,0c-0.4,0.4-0.5,0.4-0.7-0.2
	c-0.1-0.2-0.1-0.4-0.2-0.7C17.5,23.4,17.5,23.3,17.5,23.2z"/>
</svg>
